<svg xmlns="http://www.w3.org/2000/svg" viewBox="0 0 100 100" preserveAspectRatio="none">
  <g fill="none" stroke="#4a5e78" stroke-width="0.35" stroke-linecap="round" stroke-linejoin="round" opacity="0.92">
        <path d="M 61.588499999999996 41.797 L 61.501666666666665 41.92733333333333 L 61.154666666666664 42.22 L 60.85066666666666 42.448 L 60.113 42.61066666666667 L 59.41833333333333 42.708333333333336 L 59.071333333333335 42.77333333333333 L 59.76566666666667 42.77333333333333 L 60.937666666666665 42.48066666666667 L 61.97933333333333 42.05766666666667 L 62.370000000000005 41.7485"/>
    <path d="M 57.7475 41.1135 L 57.595666666666666 41.11333333333334 L 57.16166666666667 41.211 L 57.03133333333333 41.30866666666666 L 57.422 41.373999999999995 L 58.11633333333333 41.30866666666666 L 58.42033333333333 41.145999999999994 L 58.3985 41.064499999999995"/>
    <path d="M 54.753 35.498 L 54.818000000000005 35.57933333333333 L 54.77466666666667 35.742333333333335 L 54.818000000000005 35.905 L 54.64433333333333 36.10033333333333 L 54.77433333333334 36.263 L 55.165 36.165333333333336 L 55.816 35.937666666666665 L 56.20666666666667 35.644666666666666 L 56.032999999999994 35.57966666666667 L 55.64233333333333 35.611999999999995 L 55.208333333333336 35.611999999999995 L 55.078 35.644499999999994"/>
    <path d="M 54.883 38.1345 L 54.861333333333334 38.216 L 55.165333333333336 38.248666666666665 L 55.55566666666667 38.151 L 55.68566666666667 38.02066666666666 L 55.533500000000004 37.988"/>
    <path d="M 59.8955 36.718500000000006 L 59.85233333333333 36.84866666666667 L 59.89566666666667 36.979000000000006 L 60.199666666666666 36.979000000000006 L 60.373 36.81633333333334 L 60.4165 36.718500000000006"/>
    <path d="M 47.2655 42.383 L 47.04866666666667 42.383 L 46.70133333333334 42.480333333333334 L 46.52766666666667 42.643 L 46.571 42.936 L 46.788000000000004 43.13133333333334 L 47.135333333333335 43.326666666666675 L 47.61266666666666 43.45666666666667 L 48.00333333333333 43.586999999999996 L 48.13366666666667 43.39166666666667 L 48.09033333333334 43.13133333333334 L 47.873333333333335 42.83833333333334 L 47.786333333333324 42.578 L 47.656 42.4315"/>
    <path d="M 46.354 36.084 L 46.354000000000006 36.39333333333334 L 46.354000000000006 36.81633333333334 L 46.48433333333333 37.044333333333334 L 46.571333333333335 36.68633333333333 L 46.615 36.475"/>
    <path d="M 39.518 41.650499999999994 L 39.669999999999995 41.76433333333333 L 40.147666666666666 41.89433333333333 L 40.885666666666665 41.89433333333333 L 41.40633333333333 41.76433333333333 L 41.53633333333334 41.666666666666664 L 41.31933333333333 41.63433333333333 L 40.711999999999996 41.666666666666664 L 40.364999999999995 41.650499999999994"/>
    <path d="M 44.8565 46.826499999999996 L 44.835 47.00533333333333 L 44.66133333333334 47.298333333333325 L 44.66133333333334 47.526 L 44.66133333333334 47.59133333333333 L 44.70466666666667 47.55866666666666 L 44.87833333333333 47.26566666666667 L 44.9215 47.119"/>
    <path d="M 43.164 55.371 L 43.229000000000006 55.50133333333334 L 43.272333333333336 55.76166666666666 L 43.40266666666667 55.92466666666667 L 43.532999999999994 55.957 L 43.70666666666667 55.957 L 43.879999999999995 55.89166666666667 L 43.92333333333334 55.85933333333333 L 43.879999999999995 55.826666666666675 L 43.663000000000004 55.729000000000006 L 43.48933333333334 55.566 L 43.359 55.4195"/>
    <path d="M 41.4715 56.787 L 41.449666666666666 56.93366666666666 L 41.449666666666666 57.064 L 41.71 56.934 L 41.861999999999995 56.787499999999994"/>
    <path d="M 42.383 62.6465 L 42.318000000000005 62.760333333333335 L 42.318000000000005 63.02066666666667 L 42.49133333333334 63.151 L 42.578 63.151 L 42.62133333333333 62.98833333333334 L 42.62133333333333 62.793 L 42.708 62.695499999999996"/>
    <path d="M 58.0075 40.039 L 57.72533333333333 40.104000000000006 L 57.334666666666664 40.20166666666667 L 56.814 40.20166666666667 L 56.42366666666667 40.169333333333334 L 55.989666666666665 40.23433333333333 L 55.989666666666665 40.364666666666665 L 56.29333333333333 40.56 L 56.94433333333333 40.625 L 57.638666666666666 40.397 L 58.0075 40.234"/>
    <path d="M 52.6045 45.653999999999996 L 52.561 45.86566666666667 L 52.73433333333333 46.28900000000001 L 53.211666666666666 46.419333333333334 L 53.689 46.452 L 53.906000000000006 46.321666666666665 L 53.64566666666667 46.06133333333333 L 53.5155 45.8985"/>
    <path d="M 56.315 62.744 L 56.379999999999995 62.858000000000004 L 56.379999999999995 63.11866666666666 L 56.553666666666665 63.47666666666667 L 56.684000000000005 63.70466666666667 L 56.81433333333334 63.769666666666666 L 56.988 63.574333333333335 L 57.16166666666667 63.443999999999996 L 57.422 63.31366666666667 L 57.46533333333333 63.28133333333333 L 57.37833333333333 63.28133333333333 L 57.031 63.11866666666666 L 56.835499999999996 63.086"/>
    <path d="M 66.992 57.861 L 67.01366666666667 57.94233333333333 L 66.75333333333333 58.268 L 66.623 58.59366666666667 L 66.71 58.659 L 66.97033333333333 58.431000000000004 L 67.18766666666666 58.105333333333334 L 67.1225 58.00749999999999"/>
    <path d="M 43.685 67.4315 L 43.967000000000006 67.54533333333333 L 44.27066666666667 67.90333333333332 L 45.095333333333336 68.16366666666666 L 45.529333333333334 68.294 L 45.833333333333336 68.26166666666667 L 46.050333333333334 68.06633333333333 L 46.093999999999994 68.06633333333333 L 45.833333333333336 68.03366666666666 L 45.44266666666667 68.099 L 45.22533333333333 67.93633333333334 L 45.00833333333333 67.77366666666667 L 44.791333333333334 67.54566666666666 L 44.531000000000006 67.4805"/>
    <path d="M 41.7315 67.38300000000001 L 41.53633333333334 67.41533333333334 L 41.276 67.51299999999999 L 41.146 67.38266666666667 L 41.059 67.35033333333332 L 41.01566666666667 67.448 L 41.493 67.64333333333333 L 42.14433333333333 67.70833333333333 L 42.62166666666667 67.57799999999999 L 42.535000000000004 67.35033333333332 L 42.383 67.2365"/>
    <path d="M 46.81 67.041 L 46.875 67.155 L 46.83166666666667 67.35033333333332 L 46.961666666666666 67.54566666666666 L 47.092000000000006 67.578 L 47.439 67.643 L 47.873333333333335 67.643 L 48.09033333333334 67.57799999999999 L 48.00366666666667 67.51299999999999 L 47.613 67.41533333333332 L 47.48266666666667 67.35033333333332 L 47.309 67.155 L 47.3305 67.041"/>
  </g>
</svg>
