<svg xmlns="http://www.w3.org/2000/svg" viewBox="0 0 100 100" preserveAspectRatio="none">
  <g fill="none" stroke="#4a5e78" stroke-width="0.35" stroke-linecap="round" stroke-linejoin="round" opacity="0.92">
        <path d="M 66.732 33.349500000000006 L 66.75366666666666 33.39833333333333 L 66.84033333333333 33.43066666666667 L 67.18733333333334 33.561 L 67.75166666666667 33.72366666666667 L 68.35933333333332 34.01666666666667 L 68.92366666666666 34.17933333333334 L 69.27066666666667 34.24466666666667 L 69.401 34.147 L 68.70666666666666 33.854000000000006 L 67.92566666666666 33.626000000000005 L 67.14433333333334 33.39833333333333 L 67.0575 33.3985"/>
    <path d="M 67.1225 37.695499999999996 L 67.10066666666667 37.793 L 66.84033333333333 38.02066666666666 L 66.58 38.18333333333333 L 66.146 38.37866666666667 L 65.88533333333334 38.50899999999999 L 66.276 38.57433333333333 L 67.10066666666667 38.50933333333333 L 67.969 38.47666666666667 L 68.48966666666666 38.443999999999996 L 68.533 38.31366666666667 L 68.533 38.086 L 68.14233333333333 37.82566666666667 L 68.03399999999999 37.7445"/>
    <path d="M 63.086 33.203 L 62.934 33.203 L 62.63033333333333 33.30066666666667 L 62.5 33.36566666666667 L 62.586999999999996 33.39833333333333 L 62.804 33.39833333333333 L 63.19466666666667 33.333333333333336 L 63.498333333333335 33.30066666666667 L 63.62833333333333 33.203 L 63.6065 33.153999999999996"/>
    <path d="M 59.4405 43.8965 L 59.461999999999996 44.108000000000004 L 59.635333333333335 44.23833333333334 L 59.98233333333334 44.23833333333334 L 60.24266666666667 44.01066666666666 L 60.11266666666666 43.88033333333333 L 60.091 43.799"/>
    <path d="M 43.6845 39.6485 L 43.576 39.77866666666667 L 43.446 40.00666666666667 L 43.663000000000004 40.039 L 44.097 40.00633333333334 L 44.48766666666666 39.876000000000005 L 44.53133333333333 39.746 L 44.466499999999996 39.6485"/>
    <path d="M 68.62 46.679500000000004 L 68.62 46.809666666666665 L 68.70666666666666 47.03766666666667 L 68.967 47.168 L 69.22733333333333 47.07033333333334 L 69.184 46.84233333333333 L 69.1405 46.679500000000004"/>
    <path d="M 67.7735 43.0175 L 67.53466666666667 43.03366666666667 L 67.23066666666666 43.09866666666667 L 67.01366666666667 43.196333333333335 L 67.31766666666667 43.229000000000006 L 67.70833333333333 43.196333333333335 L 68.01233333333333 43.06633333333334 L 68.03399999999999 43.0175"/>
    <path d="M 59.7655 37.841499999999996 L 59.722 38.053333333333335 L 59.59166666666667 38.34633333333333 L 59.59166666666667 38.63933333333333 L 59.76533333333333 38.476333333333336 L 59.939 38.18333333333333 L 60.091 37.841499999999996"/>
    <path d="M 61.132999999999996 40.283 L 61.154666666666664 40.332 L 61.111333333333334 40.52733333333333 L 61.154666666666664 40.78766666666667 L 61.24133333333333 40.983 L 61.415 40.853 L 61.458333333333336 40.56 L 61.4585 40.332"/>
    <path d="M 64.7135 43.3595 L 64.67 43.522333333333336 L 64.62666666666667 43.75 L 64.71366666666667 43.88033333333333 L 64.844 43.71733333333333 L 64.90899999999999 43.6035"/>
    <path d="M 51.107 42.627 L 51.25866666666667 42.74100000000001 L 51.69266666666667 42.87133333333333 L 52.21333333333333 42.93633333333333 L 52.604000000000006 42.93633333333333 L 52.821 42.838666666666676 L 52.95133333333333 42.74100000000001 L 52.474 42.61066666666667 L 52.1485 42.578"/>
    <path d="M 47.721000000000004 42.334 L 47.873 42.415333333333336 L 48.13366666666667 42.448 L 48.220666666666666 42.415333333333336 L 48.2425 42.334"/>
    <path d="M 58.0075 51.51349999999999 L 57.72533333333333 51.595 L 57.248 51.69266666666667 L 56.94433333333333 51.757666666666665 L 56.988 51.855333333333334 L 57.248333333333335 51.98566666666667 L 57.68233333333333 51.95333333333334 L 58.333333333333336 51.85566666666667 L 58.941 51.69266666666667 L 59.375 51.595 L 59.114666666666665 51.464666666666666 L 58.9195 51.416"/>
    <path d="M 53.06 56.6405 L 53.125 56.83599999999999 L 52.995000000000005 57.193999999999996 L 53.08166666666667 57.519666666666666 L 53.342000000000006 57.552 L 53.51533333333333 57.22666666666667 L 53.710499999999996 56.9825"/>
    <path d="M 49.7395 63.623 L 49.60933333333333 63.802 L 49.26233333333332 64.12733333333334 L 49.218999999999994 64.38766666666668 L 49.52266666666666 64.25766666666667 L 49.86966666666667 64.03 L 50.260333333333335 63.63966666666666 L 50.260333333333335 63.50933333333333 L 50.3255 63.428"/>
    <path d="M 51.6925 58.0075 L 51.519000000000005 58.23533333333334 L 51.302 58.561 L 51.519 58.46333333333333 L 51.692499999999995 58.3495"/>
    <path d="M 66.21100000000001 41.9435 L 66.31933333333335 42.12233333333333 L 66.58 42.382666666666665 L 67.10066666666667 42.44766666666666 L 67.318 42.31766666666667 L 67.18766666666666 42.155 L 66.84033333333333 42.025000000000006 L 66.6665 41.99250000000001"/>
    <path d="M 68.685 41.797 L 68.837 41.894666666666666 L 69.14066666666668 41.992333333333335 L 69.35766666666667 41.927 L 69.27066666666667 41.79666666666666 L 69.0755 41.699"/>
    <path d="M 65.88550000000001 50.7325 L 66.01566666666666 50.943999999999996 L 66.059 51.302 L 66.23266666666666 51.62766666666667 L 66.276 51.888000000000005 L 66.44966666666666 52.05066666666667 L 66.49300000000001 51.953 L 66.53633333333333 51.660333333333334 L 66.406 51.367333333333335 L 66.31933333333333 50.943999999999996 L 66.211 50.781"/>
    <path d="M 64.1275 64.0135 L 64.10566666666666 64.12733333333334 L 63.931999999999995 64.35533333333333 L 63.931999999999995 64.518 L 63.97566666666666 64.55066666666666 L 64.06233333333334 64.48533333333334 L 64.27933333333333 64.25766666666668 L 64.366 64.06233333333334 L 64.518 63.916"/>
  </g>
</svg>
