<svg width="234" height="132" viewBox="0 0 234 132" fill="none" xmlns="http://www.w3.org/2000/svg">
<g clip-path="url(#clip0_7043_6026)">
<path d="M231.553 20.8343H233.831C233.848 20.8343 233.864 20.8411 233.876 20.8531C233.888 20.8651 233.895 20.8813 233.895 20.8983V130.909C233.895 130.917 233.893 130.925 233.89 130.933C233.887 130.941 233.882 130.948 233.876 130.954C233.87 130.96 233.863 130.964 233.855 130.968C233.848 130.971 233.839 130.972 233.831 130.972H231.553C231.536 130.972 231.52 130.966 231.508 130.954C231.496 130.942 231.49 130.926 231.49 130.909V20.8983C231.49 20.8813 231.496 20.8651 231.508 20.8531C231.52 20.8411 231.536 20.8343 231.553 20.8343Z" fill="url(#paint0_linear_7043_6026)"/>
<path d="M111.931 1C112.323 1.08981 112.614 1.33205 112.803 1.7267C113.683 3.5705 112.232 5.018 111.014 6.30325C108.401 9.06583 105.543 11.7733 102.438 14.4258C102.374 14.4809 102.339 14.5418 102.255 14.6057C101.916 14.8624 101.572 15.1761 101.272 15.5852C94.9344 24.2515 89.3844 33.3918 84.8285 43.0514C83.2059 46.4911 81.7794 49.9726 80.5489 53.4956C80.3129 54.1702 80.1214 54.7592 79.9746 55.2627C79.6953 56.2185 79.3364 57.2865 79.1033 58.3396C78.8359 59.5443 78.6333 60.3231 78.5202 61.39C78.4383 62.1675 78.3894 62.7536 78.3737 63.1483C78.3235 64.4119 78.5202 65.5831 79.0257 66.7493C79.0722 66.8568 79.1197 66.9237 79.1682 66.9499C79.1833 66.9584 79.1961 66.9704 79.2053 66.985C79.2146 66.9996 79.2201 67.0163 79.2213 67.0335L79.2253 67.1082C79.2265 67.1289 79.2333 67.1489 79.2449 67.1663C79.9143 68.189 80.8793 68.6256 82.1399 68.4761C82.1794 68.4716 82.2165 68.454 82.2452 68.4259C82.2819 68.3899 82.3314 68.3827 82.3937 68.4043C82.4308 68.4178 82.4713 68.4195 82.5097 68.4092C83.8461 68.069 85.0389 67.4701 86.2032 66.7208C86.3815 66.6061 86.5785 66.4727 86.7942 66.3206C87.2688 65.9862 87.6674 65.702 87.9899 65.468C88.142 65.3572 88.4105 65.1537 88.7953 64.8573C89.0602 64.6528 89.3604 64.3991 89.6961 64.0962C90.6886 63.202 91.825 62.1426 93.1054 60.918C93.8888 60.1674 95.0223 58.9487 96.5058 57.2619C97.7403 55.8583 98.9541 54.4334 100.147 52.9872C100.529 52.5244 100.801 52.1481 100.961 51.8583C102.044 49.9119 103.262 48.058 104.617 46.2964C104.938 45.8788 105.305 45.495 105.719 45.1449C106.37 44.5933 107.031 44.8853 107.451 45.4921C107.919 46.1686 108.106 46.9002 107.781 47.6948C107.769 47.7248 107.752 47.7526 107.731 47.7774C107.565 47.9754 107.371 48.2238 107.148 48.5228C106.953 48.7837 106.743 49.0403 106.518 49.2927C106.461 49.357 104.822 51.2572 101.602 54.9933C101.31 55.3315 101.09 55.639 100.941 55.9157C100.324 57.0564 99.9338 58.0023 99.3438 59.4882C99.0085 60.3319 98.7567 61.2936 98.5365 62.0105C98.3644 62.575 97.9337 64.4138 98.2356 64.879C98.2427 64.8894 98.2477 64.9011 98.2503 64.9134C98.3618 65.4274 98.228 65.8577 97.8491 66.2045C97.3092 66.6992 96.5373 66.3973 96.0564 65.9911C96.039 65.9764 96.0251 65.958 96.0157 65.9372C96.0063 65.9165 96.0018 65.8939 96.0024 65.8712C96.0109 65.6404 96.0174 65.2936 96.022 64.8308C96.0259 64.4663 96.0574 64.1218 96.1164 63.7973C96.3888 62.2996 96.851 60.8098 97.5059 59.2856C97.6875 58.8615 97.9337 58.2656 98.2444 57.4979C98.2451 57.4968 98.2456 57.4956 98.2458 57.4943C98.2461 57.493 98.2461 57.4917 98.2458 57.4904C98.2455 57.4891 98.245 57.4879 98.2442 57.4868C98.2435 57.4857 98.2426 57.4848 98.2415 57.4841C98.2404 57.4834 98.2391 57.4829 98.2379 57.4827C98.2366 57.4824 98.2352 57.4825 98.234 57.4827C98.2327 57.483 98.2315 57.4835 98.2304 57.4843C98.2293 57.485 98.2284 57.486 98.2277 57.4871C97.9832 57.7572 96.9031 58.9533 94.9875 61.0753C94.4159 61.7086 93.82 62.3281 93.1998 62.9339C92.6085 63.5108 91.9984 64.1162 91.3697 64.7501C91.1875 64.9337 91.0315 65.0806 90.9017 65.1907C90.7253 65.3402 90.5667 65.4831 90.4257 65.6194C90.2756 65.765 90.0324 65.9744 89.6961 66.2478C89.4876 66.4169 89.1224 66.7234 88.6006 67.1672C88.5705 67.1928 88.5518 67.2158 88.5446 67.2361C88.5334 67.2682 88.5124 67.2875 88.4816 67.2941C88.4469 67.302 88.4079 67.3236 88.3646 67.359C87.3649 68.1726 86.3055 68.8924 85.1864 69.5185C85.1464 69.5414 85.1218 69.566 85.1126 69.5922C85.0989 69.6342 85.072 69.6528 85.032 69.6483C84.9835 69.6424 84.9317 69.6538 84.8766 69.6827C83.0132 70.6444 80.3679 71.0967 78.6431 69.5883C77.9685 68.9983 77.4683 68.2621 77.1425 67.3797C77.094 67.2479 76.9996 66.9607 76.8593 66.5182C76.8541 66.5027 76.8524 66.4859 76.8544 66.4691C76.857 66.4468 76.8557 66.4219 76.8505 66.3943C76.6027 65.0537 76.5748 63.7206 76.7669 62.395C76.9498 61.1265 77.1284 60.1333 77.3028 59.4154C77.3572 59.1899 77.4903 58.6855 77.702 57.902C78.0236 56.7082 78.2832 56.0012 78.71 54.6747C78.8693 54.1804 79.0689 53.608 79.3089 52.9577C80.3866 50.0358 81.5253 47.2539 82.725 44.6119C84.9238 39.7719 87.3973 34.9672 90.1455 30.1979C92.3082 26.4441 94.607 22.7391 97.0418 19.083C97.0462 19.0782 97.0485 19.0718 97.0483 19.0652C97.048 19.0587 97.0451 19.0525 97.0403 19.0481C97.0355 19.0436 97.0291 19.0413 97.0225 19.0416C97.016 19.0419 97.0098 19.0447 97.0054 19.0495C94.2153 21.3218 91.4183 23.5982 88.6144 25.879C88.5239 25.9527 88.4915 26.0648 88.3784 26.0884C88.3558 26.0929 88.3342 26.1031 88.3154 26.1179C86.9794 27.1747 85.9508 27.9873 85.2297 28.5557C85.1562 28.6134 85.0877 28.6671 85.0241 28.7169C84.4754 29.1444 83.5517 29.8593 82.253 30.8617C81.1969 31.6765 80.0992 32.5124 78.9598 33.3692C78.7736 33.5095 78.0751 34.032 76.8642 34.9367C73.8322 37.203 70.5206 39.5854 66.9294 42.0837C66.8854 42.1145 66.8572 42.1418 66.8448 42.1654C66.8258 42.2034 66.7946 42.224 66.7514 42.2273C66.7263 42.2292 66.7025 42.2381 66.6825 42.2529C66.2013 42.5885 65.7493 42.9016 65.3265 43.192C65.2301 43.2579 65.1937 43.3257 65.1042 43.369C64.8378 43.4949 64.409 43.8253 63.6223 44.3651C63.5836 44.392 63.5155 44.4386 63.4178 44.5048C63.0369 44.7644 62.0506 45.4324 60.4589 46.5089C59.8151 46.9448 59.0228 47.4719 58.0821 48.0901C55.5693 49.7408 53.5442 51.068 52.0069 52.0717C51.919 52.1294 51.865 52.1648 51.8446 52.1779C50.4974 53.0479 49.5452 53.6641 48.988 54.0266C48.9785 54.0328 48.9706 54.041 48.9649 54.0507C48.9592 54.0603 48.9557 54.0712 48.9549 54.0823C48.954 54.0935 48.9557 54.1047 48.96 54.1149C48.9642 54.1252 48.9707 54.1344 48.9791 54.1417C49.5698 54.6576 50.1926 55.1991 50.8475 55.7662C50.8652 55.7819 50.9275 55.8013 51.0343 55.8242C51.0516 55.8278 51.067 55.8373 51.0781 55.8511C51.0892 55.8649 51.0953 55.8821 51.0953 55.8999V55.9334C51.0953 55.9498 51.0988 55.966 51.1056 55.9809C51.1124 55.9958 51.1223 56.0091 51.1346 56.0199C52.6228 57.331 54.0182 58.6405 55.3208 59.9484C55.3896 60.0173 55.446 60.0546 55.4899 60.0605C55.564 60.0703 55.5968 60.1097 55.5883 60.1785C55.5855 60.2 55.5875 60.2218 55.5941 60.2424C55.6007 60.263 55.6118 60.2818 55.6266 60.2975C57.5048 62.3291 59.0831 64.6262 59.9711 67.2449C59.9807 67.2725 59.9986 67.2965 60.0222 67.3138C60.0622 67.342 60.0757 67.3757 60.0626 67.4151C60.0475 67.4642 60.0494 67.5206 60.0685 67.5842C60.925 70.4222 60.6831 73.7056 59.1746 76.28C58.6147 77.2359 57.8756 78.1592 56.9571 79.0502C55.8721 80.1037 54.8081 80.9995 53.7651 81.7377C53.7225 81.7678 53.6924 81.8009 53.6747 81.837C53.6557 81.875 53.6242 81.8963 53.5803 81.9009C53.5506 81.9041 53.5222 81.915 53.4977 81.9324C52.3694 82.7433 51.2071 83.4867 50.0107 84.1626C49.9648 84.1889 49.9376 84.219 49.9291 84.2531C49.9159 84.3036 49.8838 84.3216 49.8327 84.3072C49.8006 84.2983 49.7663 84.3026 49.7373 84.319C48.0931 85.2512 46.4204 86.11 44.7192 86.8954C44.6766 86.9144 44.6474 86.9364 44.6317 86.9613C44.5894 87.0252 44.4714 87.0173 44.377 87.0606C39.5087 89.3085 34.4949 91.1248 29.3356 92.5094C26.5658 93.2528 23.8684 93.9071 21.2435 94.4722C17.5146 95.2752 13.7451 95.8358 9.93487 96.1537C8.19564 96.2992 6.51508 96.3173 4.89319 96.2078C3.47912 96.1134 1.65008 95.6453 0.700151 94.5292C0.304186 94.0637 0.0708018 93.4809 0 92.7808V92.1662C0.184871 90.6705 0.912557 89.3243 1.82118 88.1265C3.65219 85.7173 5.89032 83.5117 8.09304 81.54C10.7953 79.121 13.5425 76.871 16.3346 74.7902C18.0869 73.4843 19.7403 72.2591 21.2946 71.1144C21.2972 71.1125 21.3002 71.1108 21.3035 71.1095L23.3351 69.6522C23.3377 69.6502 23.3407 69.6483 23.344 69.6463C27.4845 66.7611 31.595 63.9936 35.6753 61.3438C35.7697 61.2838 35.8316 61.1678 35.9447 61.156C35.9557 61.1547 35.9658 61.151 35.9742 61.1452C37.423 60.2057 39.0128 59.1768 40.7435 58.0584C40.851 57.9889 40.9149 57.942 40.9353 57.9178C41.0061 57.8342 41.1103 57.8244 41.2096 57.7604C41.9439 57.2865 42.5463 56.8993 43.017 56.5991C43.3579 56.3819 43.6996 56.1627 44.0397 55.9432L46.624 54.2794C46.6287 54.2764 46.6326 54.2723 46.6355 54.2676C46.6384 54.2628 46.64 54.2574 46.6404 54.2518C46.6408 54.2463 46.6399 54.2407 46.6377 54.2356C46.6355 54.2304 46.6322 54.2259 46.6279 54.2223C45.9756 53.667 45.2699 53.0564 44.5107 52.3903C43.037 51.0982 41.64 49.7221 40.3197 48.2622C40.2965 48.2358 40.2667 48.2158 40.2331 48.2042L40.1437 48.1707C40.1306 48.1661 40.1196 48.1571 40.1124 48.1453C40.1052 48.1335 40.1024 48.1195 40.1043 48.1058C40.1056 48.096 40.1066 48.0855 40.1073 48.0744C40.1082 48.0604 40.1062 48.0463 40.1015 48.0331C40.0967 48.02 40.0893 48.0079 40.0797 47.9977C39.1475 46.9979 38.3044 45.9329 37.5505 44.8027C37.5092 44.7404 37.4686 44.705 37.4286 44.6965C37.3788 44.686 37.3588 44.6496 37.3686 44.5874C37.3736 44.5564 37.3666 44.5244 37.3489 44.4979C36.8442 43.7315 36.3915 42.9353 35.9909 42.1093C35.9763 42.0794 35.952 42.0555 35.9221 42.0415C35.8841 42.0238 35.8706 41.9959 35.8818 41.9579C35.891 41.9271 35.8844 41.8884 35.8621 41.8418C35.5409 41.1646 35.2705 40.4691 35.0508 39.7551C35.0344 39.702 35.0105 39.6601 34.979 39.6293C34.9528 39.6024 34.9443 39.568 34.9535 39.526C34.9599 39.4996 34.9592 39.4721 34.9515 39.4464C34.1504 36.5959 34.0852 33.7363 34.7558 30.8675C34.8866 30.309 35.0538 29.8252 35.2564 29.1772C35.3213 28.972 35.3986 28.7507 35.4884 28.5134C36.7206 25.2663 38.4906 22.3979 40.6845 19.7182C40.9749 19.3642 41.1972 19.1017 41.3512 18.9306C41.7754 18.4592 42.0029 18.2009 42.0337 18.1557C42.0533 18.1268 42.1313 18.0406 42.2677 17.8971C43.1055 17.0133 43.9532 16.187 44.8107 15.418C44.8133 15.4154 44.8162 15.4128 44.8195 15.4101C44.8602 15.3741 45.4341 14.8821 46.5414 13.9341C46.6253 13.8627 46.7059 13.7961 46.7833 13.7345C47.8125 12.917 48.8939 12.1454 50.0274 11.4197C50.3748 11.1974 50.601 11.0529 50.7059 10.986C52.571 9.80598 54.5358 8.81541 56.6002 8.0143C58.2129 7.38888 60.3113 6.86377 61.8326 8.10083C62.6203 8.74297 62.7816 9.65847 62.5682 10.6399C62.2053 12.3067 61.7067 13.6293 60.9574 15.2135C60.7037 15.7491 60.3402 16.5371 59.8669 17.5775C58.9936 19.494 57.9326 21.6348 56.9453 23.5543C56.4379 24.5403 55.7532 25.7429 54.8911 27.1623C54.7239 27.4376 54.5807 27.6379 54.4614 27.7631C54.363 27.866 54.2004 28.0506 53.9736 28.3167C53.95 28.3441 53.9182 28.3628 53.8831 28.3698C53.0404 28.538 52.0049 28.4564 51.7689 27.4602C51.6765 27.0728 51.7066 26.685 51.8594 26.2969C51.8714 26.2667 51.895 26.2423 51.9253 26.229C52.0911 26.1563 52.2478 26.0255 52.3953 25.8367C53.715 24.1453 54.5853 23.1157 55.4408 21.6977C57.0151 19.0899 58.5551 16.2008 59.7489 13.2782C59.9934 12.6803 60.2025 12.0697 60.3763 11.4462C60.509 10.9703 60.6654 10.3095 60.4854 9.85219C60.4738 9.82223 60.4536 9.79636 60.4274 9.77782C60.4011 9.75927 60.37 9.74889 60.3379 9.74796C58.9815 9.70797 57.6586 9.89874 56.3691 10.3203C54.957 10.7818 53.6393 11.339 52.416 11.992C52.2422 12.0844 52.1462 12.1359 52.1278 12.1464C50.9098 12.8111 49.7068 13.5745 48.5189 14.4366C48.5137 14.4405 48.4445 14.4946 48.3114 14.5989C48.0046 14.8401 47.6326 15.1292 47.1953 15.4662C46.7915 15.7776 46.4319 16.0801 46.1166 16.3738C45.1912 17.2352 43.8932 18.3661 42.9718 19.378C40.4927 22.1009 38.5044 25.0529 37.1031 28.539C36.5996 29.7924 36.2459 31.06 36.0421 32.3416C35.6245 34.9646 35.8778 37.5141 36.8022 39.9902C36.8422 40.0983 36.8671 40.1645 36.8769 40.1888C37.1805 40.9368 37.5368 41.6756 37.9458 42.4053C37.997 42.4971 38.0448 42.5525 38.0894 42.5715C38.1425 42.5944 38.1645 42.6334 38.1553 42.6885C38.1483 42.7279 38.1556 42.7686 38.1759 42.8036C38.644 43.5896 39.2026 44.4133 39.8516 45.2747C39.906 45.3468 39.9693 45.3967 40.0414 45.4242C40.059 45.4308 40.0742 45.4426 40.0849 45.4581C40.0956 45.4736 40.1014 45.4919 40.1014 45.5107V45.5442C40.1013 45.5759 40.1125 45.6066 40.1328 45.6307C41.1254 46.8271 42.1671 47.9737 43.2579 49.0705C43.2881 49.1007 43.353 49.1315 43.4527 49.1629C43.4721 49.1688 43.4894 49.1804 43.5022 49.1961C43.515 49.2119 43.5227 49.2312 43.5244 49.2514C43.5251 49.2554 43.5241 49.2655 43.5215 49.2819C43.5194 49.2948 43.5206 49.308 43.5251 49.3202C43.5296 49.3324 43.5371 49.3433 43.5471 49.3517L48.039 53.3117C48.0494 53.321 48.0627 53.3267 48.0767 53.3277C48.0907 53.3288 48.1048 53.3253 48.1167 53.3176L50.5987 51.7187C50.6215 51.7041 50.6383 51.6817 50.6459 51.6558C50.6603 51.6053 50.6859 51.5807 50.7226 51.582C50.761 51.5839 50.7988 51.5736 50.8308 51.5525C54.8763 48.9348 58.6603 46.4282 62.1827 44.0328C62.2505 43.9855 62.3086 43.8744 62.4039 43.8607C62.4275 43.8574 62.4616 43.8407 62.5062 43.8105C63.5499 43.094 64.0045 42.7813 63.8701 42.8724C63.8698 42.8724 63.8694 42.8724 63.869 42.8722C63.8687 42.8721 63.8684 42.8718 63.8682 42.8715C63.868 42.8712 63.8679 42.8709 63.8679 42.8705C63.8679 42.8701 63.868 42.8698 63.8682 42.8694L65.4976 41.7494C65.4989 41.7481 65.5006 41.7468 65.5025 41.7455L75.6744 34.4755C75.6796 34.4716 75.6849 34.4679 75.6901 34.4647L83.8244 28.2548C83.8575 28.23 83.8811 28.1942 83.8913 28.1535C83.9051 28.0984 83.9375 28.0738 83.9887 28.0797C83.9964 28.0807 84.0043 28.08 84.0117 28.0778C84.0191 28.0756 84.026 28.0719 84.0319 28.0669C85.3319 27.041 86.3612 26.2277 87.1197 25.6272C87.1236 25.624 87.1924 25.5699 87.3262 25.465C91.4432 22.2304 95.4864 18.8975 99.4559 15.4662C99.516 15.4133 99.5698 15.3535 99.6162 15.2882C101.909 12.0352 104.334 8.73116 106.891 5.37595C107.656 4.37226 108.321 3.54526 108.884 2.89493C109.209 2.51994 109.597 2.15414 110.048 1.7975C110.554 1.39629 111.06 1.13046 111.564 1H111.931ZM109.438 5.84482C109.447 5.83524 109.452 5.82253 109.451 5.80951C109.451 5.79648 109.445 5.78419 109.436 5.77535L109.433 5.77268C109.428 5.7683 109.422 5.7649 109.416 5.76267C109.41 5.76044 109.404 5.75943 109.397 5.75969C109.391 5.75994 109.385 5.76147 109.379 5.76418C109.373 5.76689 109.368 5.77073 109.363 5.77547L106.397 8.98997C106.388 8.99956 106.383 9.01226 106.384 9.02529C106.385 9.03832 106.39 9.05061 106.4 9.05945L106.403 9.06211C106.407 9.06649 106.413 9.0699 106.419 9.07213C106.425 9.07436 106.432 9.07537 106.438 9.07511C106.444 9.07485 106.451 9.07332 106.457 9.07061C106.463 9.06791 106.468 9.06407 106.472 9.05932L109.438 5.84482ZM36.8671 61.8915C36.8389 61.8915 36.8147 61.8984 36.7943 61.9122C32.8019 64.5174 28.8455 67.1918 24.9252 69.9354C24.7816 70.0357 24.7148 70.1242 24.6017 70.1852C24.5197 70.2298 24.4338 70.2848 24.344 70.3504C23.7206 70.8027 23.3787 71.0499 23.3184 71.0918C23.2187 71.162 22.8746 71.416 22.2859 71.8539C20.365 73.2837 18.4947 74.6942 16.6748 76.0853C14.9048 77.4391 12.7768 79.2367 10.2908 81.4781C8.89448 82.7381 7.51319 84.1312 6.14697 85.6573C4.95809 86.9859 3.98064 88.3291 3.13986 89.7904C2.43185 91.0216 1.28328 92.9883 3.0553 93.9726C3.36997 94.1477 3.65908 94.2686 3.92262 94.3355C5.01218 94.6128 6.18828 94.7596 7.45091 94.776C9.34617 94.8003 11.2876 94.696 13.2753 94.4633C19.2306 93.7681 25.1445 92.413 30.73 90.8072C34.9204 89.6022 38.999 88.0698 42.9659 86.21C43.0059 86.191 43.0373 86.1654 43.0603 86.1333C43.0865 86.0972 43.1226 86.0835 43.1685 86.092C43.1959 86.0971 43.2242 86.0933 43.2491 86.0812C44.867 85.3194 46.4525 84.5058 48.0056 83.6405C48.0449 83.6188 48.0702 83.5979 48.0813 83.5775C48.0997 83.5441 48.1259 83.5248 48.16 83.5195C48.2151 83.5117 48.2619 83.4966 48.3006 83.4743C49.5272 82.7781 50.7184 82.0268 51.8741 81.2204C51.8985 81.2031 51.9173 81.1792 51.9282 81.1516C51.944 81.1103 51.9672 81.0896 51.998 81.0896C52.0307 81.0897 52.0623 81.0797 52.0885 81.0611C53.458 80.0889 54.7082 79.0056 55.839 77.8111C56.317 77.3063 56.7306 76.8183 57.08 76.3469C59.1884 73.4981 59.328 69.841 57.9719 66.6077C57.9559 66.57 57.9284 66.538 57.8933 66.5163C57.8493 66.4894 57.8336 66.4533 57.8461 66.4081C57.8562 66.3708 57.852 66.3311 57.8343 66.297C57.2108 65.094 56.5582 64.0461 55.8764 63.1532C54.8724 61.8365 53.6511 60.5925 52.3304 59.3141C51.9892 58.9837 51.8141 58.7733 51.5506 58.6858C51.5308 58.6793 51.5142 58.6657 51.5037 58.6476C51.4932 58.6295 51.4896 58.6081 51.4936 58.5874C51.4949 58.5829 51.4955 58.5802 51.4955 58.5796C51.4904 58.5377 51.4702 58.4989 51.4385 58.4704L47.5365 55.0306C47.5244 55.0202 47.5092 55.014 47.4933 55.0129C47.4773 55.0118 47.4614 55.016 47.448 55.0247C45.5325 56.2618 43.7699 57.3953 42.1605 58.4252C42.0917 58.4694 42.0543 58.555 41.9992 58.5609C41.9566 58.5655 41.9081 58.5861 41.8537 58.6228C41.8065 58.655 40.1899 59.7058 37.0038 61.7755C36.9762 61.7932 36.9553 61.8165 36.9408 61.8453C36.9337 61.859 36.923 61.8705 36.9101 61.8786C36.8971 61.8868 36.8823 61.8912 36.8671 61.8915Z" fill="url(#paint1_linear_7043_6026)"/>
<path d="M109.455 36.7667C109.488 36.9922 109.422 37.3049 109.256 37.7048C109.008 38.3034 108.56 38.5617 107.912 38.4797C107.665 38.4483 107.223 38.3145 106.968 38.1483C106.807 38.0441 106.686 37.6626 106.536 37.4865C106.233 37.1299 105.998 36.8323 105.833 36.5936C105.775 36.5104 105.748 36.3724 105.751 36.1797C105.774 34.9219 106.647 34.3595 107.829 34.6014C107.876 34.6111 107.919 34.6324 107.955 34.6633C108.417 35.0527 108.772 35.4638 109.054 36.0105C109.261 36.4091 109.383 36.6327 109.419 36.6812C109.438 36.7056 109.45 36.7351 109.455 36.7667Z" fill="url(#paint2_linear_7043_6026)"/>
<path d="M119.785 47.2464C120.431 46.6947 121.286 45.85 122.105 45.1498C122.407 44.8909 122.644 44.685 122.815 44.5323C122.933 44.4261 123.098 44.2842 123.312 44.1065C123.486 43.9629 124.333 43.2618 125.853 42.0031C125.929 41.9402 125.998 41.8831 126.061 41.832C127.349 40.7726 128.684 39.7787 130.066 38.8505C130.597 38.4945 131.264 38.3391 131.882 38.6262C132.643 38.9803 133.304 39.6617 133.272 40.5556C133.263 40.7857 133.171 41.063 132.996 41.3875C132.67 41.992 132.431 42.425 132.279 42.6865C130.311 46.0765 128.37 49.5173 126.454 53.0089C126.45 53.0149 126.449 53.0221 126.45 53.0292C126.451 53.0362 126.455 53.0425 126.461 53.0469C126.466 53.0512 126.474 53.0532 126.481 53.0526C126.488 53.0519 126.494 53.0486 126.499 53.0433C127.774 51.7669 129.029 50.4947 130.264 49.2269C131.005 48.467 131.623 47.8551 132.116 47.3909C132.488 47.0422 132.906 46.6409 133.371 46.1873C133.861 45.7074 134.282 45.3092 134.633 44.9925C135.872 43.8734 137.16 42.7763 138.496 41.7012C138.95 41.3354 139.266 41.1037 139.444 41.006C140.3 40.534 141.354 40.8536 142.089 41.4446C142.64 41.889 142.65 42.4643 142.436 43.1104C142.24 43.7043 142.021 44.3183 141.777 44.9522C140.999 46.9766 140.474 49.059 140.204 51.1995C139.986 52.9361 140.031 54.6347 140.339 56.2952C140.464 56.9626 140.715 57.6778 141.093 58.4409C141.131 58.5163 141.174 58.5583 141.222 58.5668C141.254 58.572 141.267 58.5989 141.259 58.6474C141.252 58.691 141.262 58.7356 141.287 58.7723C142.547 60.6279 144.5 61.2818 146.674 61.2386C146.728 61.2373 146.756 61.2301 146.758 61.2169C146.761 61.1986 146.766 61.1852 146.773 61.1766C146.786 61.1636 146.803 61.1547 146.821 61.1512C146.839 61.1477 146.858 61.1497 146.874 61.157L146.975 61.2002C147.002 61.2118 147.032 61.2162 147.061 61.213C148.473 61.0806 149.851 60.7925 151.196 60.3486C151.229 60.3378 151.258 60.316 151.278 60.2867C151.305 60.246 151.348 60.2319 151.408 60.2444C151.448 60.2528 151.489 60.2504 151.528 60.2375C153.424 59.5879 155.238 58.7582 156.97 57.7486C157.122 57.6601 157.288 57.5579 157.469 57.4418C157.722 57.2792 158.251 56.9416 159.055 56.429C159.298 56.2743 159.536 56.1133 159.771 55.9461C163.122 53.5536 166.191 50.6714 168.56 47.2788C169.068 46.5505 169.481 45.7536 169.797 44.8883C169.932 44.5205 169.943 44.2393 170.024 43.8774C170.177 43.1851 171.085 42.6679 171.719 42.5213C171.75 42.5141 171.782 42.5149 171.813 42.5237C171.843 42.5325 171.871 42.5489 171.894 42.5715C173.203 43.8892 171.928 45.9552 171.047 47.1274C168.295 50.7888 165.077 53.9814 161.392 56.7053C161.284 56.7853 161.213 56.8367 161.178 56.8597C161.06 56.937 160.313 57.4527 158.938 58.4065C157.221 59.5105 155.424 60.4588 153.545 61.2514C153.48 61.2789 153.431 61.312 153.399 61.3507C153.369 61.3861 153.33 61.3979 153.281 61.3861C153.255 61.3797 153.227 61.3821 153.201 61.393C152.136 61.8368 151.044 62.2049 149.927 62.4973C149.903 62.5036 149.881 62.5161 149.863 62.5335C149.845 62.551 149.833 62.5728 149.826 62.5966C149.821 62.6156 149.796 62.6146 149.752 62.5936C149.711 62.574 149.664 62.5698 149.62 62.5818C148.816 62.8087 147.99 62.9493 147.144 63.0037C147.122 63.0053 147.101 63.0121 147.082 63.0238C147.064 63.0354 147.048 63.0515 147.037 63.0706C147.014 63.1086 146.974 63.1089 146.918 63.0716C146.875 63.0427 146.822 63.0303 146.757 63.0342C144.301 63.2004 141.861 62.4147 140.286 60.4735C140.233 60.4086 140.186 60.3693 140.143 60.3555C140.101 60.3411 140.082 60.308 140.088 60.2562C140.092 60.2247 140.079 60.1874 140.048 60.1441C139.578 59.4715 139.208 58.7474 138.94 57.9719C138.936 57.9603 138.929 57.9498 138.921 57.9408C138.913 57.9319 138.903 57.9247 138.891 57.9197C138.85 57.9001 138.838 57.8689 138.857 57.8263C138.867 57.8048 138.868 57.7806 138.861 57.7585C138.618 57.0026 138.456 56.2769 138.373 55.5813C138.148 53.6887 138.139 51.7941 138.346 49.8975C138.442 49.0085 138.478 48.4775 138.592 47.7695C138.719 46.9658 138.922 45.6648 139.199 43.8666C139.201 43.8563 139.2 43.8457 139.195 43.8362C139.191 43.8266 139.184 43.8185 139.175 43.8128C139.167 43.8071 139.156 43.804 139.146 43.804C139.135 43.8039 139.125 43.8069 139.116 43.8125C137.909 44.5788 136.785 45.4321 135.744 46.3722C135.547 46.5505 134.943 47.1159 133.932 48.0685C133.329 48.6381 132.74 49.2193 132.167 49.812C130.441 51.5971 128.802 53.4455 127.249 55.3571C126.601 56.1543 125.976 57.0046 125.375 57.9079C124.982 58.4989 124.464 58.8471 123.731 58.791C122.777 58.7172 121.447 58.0092 122.15 56.8233C123.767 54.0955 125.367 51.2064 126.95 48.156C127.722 46.6691 128.29 45.3839 129.004 43.8607C129.418 42.9796 129.603 42.3581 129.957 41.3777C129.959 41.3711 129.959 41.364 129.957 41.3574C129.955 41.3507 129.951 41.3448 129.946 41.3405C129.941 41.3362 129.934 41.3336 129.928 41.3332C129.921 41.3329 129.914 41.3346 129.909 41.3383C129.326 41.6969 128.814 42.0149 128.371 42.2922C127.982 42.5354 127.49 42.8839 126.893 43.3375C125.655 44.2789 124.995 44.7788 124.912 44.8371C124.871 44.866 124.843 44.9004 124.827 44.9404C124.815 44.9692 124.791 44.985 124.756 44.9876C124.735 44.9883 124.709 45.0023 124.676 45.0299C124.304 45.3354 123.907 45.6645 123.484 46.0172C123.327 46.1481 123.17 46.2809 123.015 46.4144C120.671 48.4369 118.391 50.6685 116.176 53.1091C114.547 54.9028 113.063 56.7843 111.721 58.7536C111.056 59.7301 110.375 61.0704 109.954 61.8581C109.738 62.2626 109.5 62.9355 109.241 63.8769C109.199 64.031 109.09 64.2254 108.915 64.4601C108.506 65.0107 107.731 64.9291 107.241 64.5702C106.896 64.3175 106.771 64.2673 106.423 64.052C106.39 64.031 106.358 64.0073 106.33 63.9812C105.928 63.6108 105.819 63.1968 106.003 62.7392C106.187 62.28 106.795 61.8237 107.169 61.4215C107.673 60.8826 108.027 60.4332 108.686 59.6446C109.031 59.2309 109.359 58.8005 109.67 58.3534C112.511 54.2633 114.158 51.8885 114.613 51.229C114.759 51.0179 114.923 50.756 115.106 50.4433C115.117 50.4248 115.122 50.4038 115.122 50.3825C115.122 50.3612 115.116 50.3404 115.105 50.3223C114.884 49.9624 114.764 49.5497 114.745 49.0843C114.744 49.052 114.751 49.0202 114.766 48.9918C115.066 48.4303 115.173 48.2494 115.424 47.7017C115.728 47.0349 116.085 46.3951 116.495 45.7821C116.946 45.1076 117.384 44.4159 117.81 43.7073C118.053 43.3041 118.418 43.0789 118.907 43.0317C119.834 42.9422 121.394 43.2559 121.177 44.5175C121.145 44.7044 121.032 44.984 120.838 45.3564C120.525 45.9542 120.161 46.5738 119.748 47.2149C119.746 47.2198 119.745 47.2256 119.746 47.2311C119.747 47.2367 119.75 47.2417 119.754 47.2454C119.758 47.2491 119.764 47.2512 119.769 47.2514C119.775 47.2515 119.78 47.2498 119.785 47.2464Z" fill="url(#paint3_linear_7043_6026)"/>
<path d="M173.922 68.7475L173.824 68.7269C173.807 68.723 173.789 68.723 173.771 68.7269C173.575 68.7691 173.002 68.9481 172.894 69.1999C172.887 69.2162 172.875 69.23 172.86 69.2392C172.844 69.2483 172.826 69.2525 172.809 69.251C172.806 69.2503 172.798 69.249 172.784 69.2471C172.766 69.2443 172.748 69.2455 172.73 69.2506C172.713 69.2557 172.697 69.2646 172.684 69.2766C172.349 69.5716 172.107 69.9357 171.957 70.3691C171.95 70.39 171.936 70.4082 171.918 70.4211C171.9 70.434 171.878 70.4409 171.856 70.4408H171.315C171.308 70.4409 171.301 70.4394 171.294 70.4365C171.287 70.4336 171.282 70.4293 171.277 70.4239C171.272 70.4186 171.268 70.4122 171.266 70.4053C171.264 70.3984 171.263 70.3911 171.264 70.3838C171.439 68.8649 172.214 67.8051 173.589 67.2046C173.669 67.1705 173.732 67.1509 173.778 67.1456C174.015 67.1207 174.256 67.0797 174.499 67.0227C174.519 67.0182 174.536 67.0067 174.547 66.9902C174.573 66.9516 174.606 66.9424 174.646 66.9627C174.669 66.9745 174.703 66.9798 174.748 66.9784C175.404 66.9594 175.883 66.9998 176.183 67.0994C177.125 67.4121 178.113 67.7982 179.147 68.2578C179.718 68.5115 180.331 68.6561 180.985 68.6915C181.678 68.7288 182.248 68.6085 182.695 68.3306C183.197 68.0185 183.569 67.5652 183.809 66.9706C183.817 66.9512 183.831 66.9345 183.848 66.9228C183.865 66.911 183.886 66.9047 183.907 66.9047H184.405C184.414 66.9046 184.423 66.9064 184.431 66.91C184.439 66.9136 184.446 66.9189 184.452 66.9255C184.458 66.9321 184.462 66.9399 184.465 66.9484C184.468 66.9568 184.468 66.9657 184.467 66.9745C184.246 68.775 183.089 70.1193 181.268 70.3612C181.072 70.3868 180.848 70.3874 180.599 70.3632C180.329 70.3376 180.103 70.3278 179.919 70.3337C179.887 70.335 179.854 70.3313 179.823 70.3229C179.359 70.2003 179.056 70.1137 178.916 70.0632C178.273 69.8331 177.369 69.3877 176.602 69.1232C175.942 68.895 175.563 68.7698 175.466 68.7475C175.047 68.6498 174.576 68.6275 174.054 68.6806C174.02 68.6839 173.987 68.6954 173.959 68.7141C173.943 68.7246 173.932 68.7344 173.929 68.7436C173.928 68.745 173.927 68.7461 173.926 68.7469C173.925 68.7476 173.923 68.7478 173.922 68.7475Z" fill="url(#paint4_linear_7043_6026)"/>
<path d="M223.832 93.2095C224.845 103.972 216.951 113.715 206.086 114.736C195.222 115.758 185.65 107.658 184.637 96.8951C183.626 86.1333 191.519 76.3902 202.384 75.3684C213.248 74.3467 222.82 82.4467 223.832 93.2095ZM204.227 76.7619C199.707 76.7619 195.372 78.6892 192.175 82.1199C188.979 85.5506 187.183 90.2036 187.183 95.0553C187.183 99.907 188.979 104.56 192.175 107.991C195.372 111.421 199.707 113.349 204.227 113.349C208.747 113.349 213.082 111.421 216.279 107.991C219.475 104.56 221.27 99.907 221.27 95.0553C221.27 90.2036 219.475 85.5506 216.279 82.1199C213.082 78.6892 208.747 76.7619 204.227 76.7619Z" fill="#233746"/>
<path d="M63.0362 109.714C63.0388 109.708 63.0427 109.703 63.0477 109.7C63.0527 109.696 63.0585 109.693 63.0648 109.692C63.071 109.691 63.0774 109.691 63.0834 109.693C63.0894 109.695 63.0948 109.699 63.0991 109.703C65.4153 112.152 68.2857 113.378 71.7104 113.381C72.6394 113.382 73.5637 113.246 74.4835 112.974C77.7551 112.007 79.0276 109.35 78.945 106.12C78.8997 104.347 78.3546 102.758 77.3096 101.354C76.5879 100.385 75.7635 99.4978 74.8365 98.6927C73.0379 97.1292 71.0034 95.5952 69.2825 94.3089C68.3398 93.6042 67.1699 92.5726 65.7729 91.2143C64.0707 89.5593 62.5957 87.4353 62.1669 85.0654C61.7834 82.9492 62.1302 81.0634 63.2073 79.4081C64.6686 77.1621 67.2715 75.7746 69.9394 75.4137C73.0055 74.9987 76.5702 75.5228 79.0512 77.4837C79.0624 77.4922 79.0703 77.5045 79.0737 77.5184C79.0771 77.5323 79.0757 77.5471 79.0699 77.5604L78.0324 79.8604C78.0295 79.8665 78.0251 79.8719 78.0197 79.8759C78.0143 79.88 78.008 79.8827 78.0014 79.8837C77.9948 79.8848 77.9881 79.8842 77.9818 79.8821C77.9756 79.8799 77.97 79.8762 77.9655 79.8713C75.7648 77.5161 72.5187 76.4364 69.3287 76.871C66.4091 77.2673 64.4375 78.7797 64.1848 81.8468C64.0143 83.9197 64.5866 85.7875 65.9017 87.45C66.7539 88.5271 67.8343 89.6098 69.1429 90.698C70.374 91.722 71.7215 92.8041 73.1854 93.9441C74.8113 95.2107 76.3335 96.5625 77.7522 97.9995C79.3088 99.5748 80.5597 101.337 81.0317 103.538C81.4571 105.522 81.2595 107.36 80.4387 109.052C78.7768 112.478 75.3842 114.567 71.6121 114.777C70.4097 114.843 69.1238 114.794 67.7544 114.629C65.6116 114.371 63.6193 113.755 61.8454 112.521C61.8293 112.509 61.8177 112.493 61.8125 112.474C61.8073 112.455 61.8088 112.435 61.8168 112.417L63.0362 109.714Z" fill="#233746"/>
<path d="M94.1615 113.949C94.6443 113.246 94.9944 112.537 95.1743 111.703C95.2405 111.394 95.2737 110.785 95.2737 109.876C95.2743 96.8558 95.274 86.0933 95.2727 77.5879C95.2727 77.5816 95.2714 77.5754 95.269 77.5696C95.2666 77.5638 95.263 77.5586 95.2585 77.5542C95.254 77.5498 95.2487 77.5463 95.2429 77.544C95.237 77.5417 95.2308 77.5406 95.2245 77.5407C93.1712 77.5486 91.355 77.5473 89.7757 77.5368C88.2312 77.5263 87.0724 77.5738 86.2995 77.6794C85.1464 77.836 84.0247 78.1222 82.9345 78.5378C82.9176 78.5443 82.8989 78.5441 82.8821 78.5374C82.8653 78.5306 82.8517 78.5178 82.844 78.5014L81.7426 76.1434C81.7399 76.1372 81.7386 76.1305 81.7391 76.1238C81.7396 76.1171 81.7417 76.1106 81.7453 76.1049C81.749 76.0993 81.7539 76.0946 81.7598 76.0914C81.7657 76.0881 81.7723 76.0864 81.779 76.0863H111.092C111.1 76.0863 111.107 76.0882 111.114 76.0919C111.121 76.0956 111.126 76.1009 111.131 76.1073C111.135 76.1138 111.137 76.1211 111.138 76.1288C111.139 76.1365 111.137 76.1442 111.134 76.1512L110.07 78.5103C110.064 78.5236 110.053 78.5342 110.04 78.5398C110.026 78.5455 110.011 78.5458 109.997 78.5408C108.8 78.0786 107.544 77.7741 106.229 77.6272C105.598 77.5564 104.301 77.5269 102.339 77.5387C101.034 77.5466 99.5083 77.5469 97.7625 77.5397C97.7559 77.5396 97.7492 77.5408 97.743 77.5433C97.7368 77.5457 97.7312 77.5494 97.7264 77.5541C97.7217 77.5587 97.7179 77.5643 97.7153 77.5704C97.7127 77.5766 97.7114 77.5832 97.7114 77.5899C97.7075 89.5554 97.7071 100.292 97.7104 109.801C97.7114 111.54 97.8058 112.667 98.7252 113.943C98.7292 113.948 98.7316 113.955 98.7321 113.962C98.7325 113.969 98.7311 113.975 98.728 113.981C98.7248 113.988 98.7201 113.993 98.7142 113.996C98.7083 114 98.7016 114.002 98.6948 114.002H94.19C94.1838 114.002 94.1778 114 94.1725 113.997C94.1673 113.994 94.163 113.989 94.1601 113.984C94.1571 113.978 94.1557 113.972 94.156 113.966C94.1562 113.96 94.1581 113.954 94.1615 113.949Z" fill="#233746"/>
<path d="M109.522 82.4152C109.528 82.4153 109.535 82.4172 109.541 82.4208C109.547 82.4244 109.552 82.4294 109.555 82.4354C109.558 82.4414 109.559 82.4481 109.559 82.4548C109.558 82.4614 109.556 82.4678 109.552 82.4732C109.11 83.0842 108.81 83.7595 108.652 84.4989C108.584 84.8202 108.55 85.3417 108.551 86.0635C108.554 89.0299 108.555 94.5764 108.556 102.703C108.556 103.953 108.805 105.195 109.304 106.43C111.372 111.551 117.048 113.802 122.257 113.3C125.345 113.003 128.321 111.527 130.324 109.202C131.52 107.812 132.271 106.192 132.575 104.341C132.646 103.918 132.68 103.282 132.68 102.433C132.675 94.0277 132.674 86.3165 132.678 79.2999C132.679 78.174 132.424 77.0264 131.682 76.1502C131.677 76.1446 131.674 76.1378 131.673 76.1306C131.672 76.1233 131.673 76.116 131.676 76.1094C131.679 76.1028 131.684 76.0972 131.69 76.0933C131.697 76.0894 131.704 76.0873 131.711 76.0873H135.086C135.095 76.0872 135.105 76.0897 135.113 76.0945C135.121 76.0994 135.127 76.1063 135.132 76.1147C135.136 76.123 135.138 76.1324 135.137 76.1418C135.137 76.1512 135.134 76.1602 135.128 76.1679C134.64 76.893 134.328 77.6551 134.193 78.4542C134.153 78.6896 134.133 79.5169 134.132 80.9362C134.131 87.4257 134.133 94.2883 134.139 101.524C134.14 102.779 134.154 103.986 133.942 105.059C132.832 110.685 127.561 114.276 122.11 114.741C115.828 115.278 109.149 112.717 106.845 106.367C106.34 104.976 106.087 103.476 106.087 101.868C106.086 96.6778 106.088 91.6765 106.092 86.8639C106.093 85.7154 106.049 84.9533 105.96 84.5776C105.785 83.8342 105.472 83.1386 105.023 82.4909C105.018 82.4836 105.015 82.4751 105.014 82.4663C105.014 82.4574 105.016 82.4486 105.02 82.4407C105.024 82.4329 105.03 82.4264 105.038 82.4219C105.045 82.4174 105.054 82.4151 105.063 82.4152H109.522Z" fill="#233746"/>
<path d="M172.101 95.0661C172.094 101.125 169.362 106.692 164.407 110.235C161.63 112.221 158.545 113.423 155.153 113.84C154.234 113.954 152.672 114.009 150.469 114.005C145.913 113.997 142.273 113.99 139.549 113.984C139.542 113.984 139.534 113.982 139.528 113.978C139.521 113.974 139.516 113.968 139.513 113.961C139.509 113.954 139.507 113.947 139.508 113.939C139.508 113.932 139.511 113.924 139.515 113.918C140.002 113.218 140.306 112.447 140.426 111.604C140.485 111.189 140.513 110.643 140.51 109.966C140.499 107.877 140.51 103.219 140.519 95.0307C140.529 86.8423 140.529 82.1841 140.544 80.0954C140.548 79.4182 140.521 78.8721 140.463 78.4572C140.345 77.6141 140.043 76.8422 139.557 76.1414C139.553 76.135 139.551 76.1277 139.55 76.1201C139.55 76.1125 139.551 76.1049 139.555 76.0982C139.558 76.0914 139.564 76.0858 139.57 76.0818C139.577 76.0778 139.584 76.0756 139.592 76.0755C142.316 76.0755 145.955 76.0765 150.511 76.0784C152.714 76.0797 154.276 76.1381 155.196 76.2535C158.586 76.6789 161.668 77.8878 164.44 79.8801C169.387 83.4339 172.107 89.0066 172.101 95.0661ZM142.987 95.012C142.979 100.752 142.923 106.601 142.966 112.457C142.966 112.469 142.971 112.48 142.979 112.489C142.988 112.497 143 112.502 143.012 112.502C145.483 112.494 148.105 112.499 150.88 112.52C152.046 112.529 153.386 112.512 154.289 112.419C159.201 111.916 163.676 109.21 166.437 105.138C168.456 102.159 169.483 98.6465 169.488 95.0484C169.493 91.4503 168.476 87.9338 166.465 84.9503C163.715 80.8703 159.247 78.1523 154.337 77.6351C153.434 77.5397 152.094 77.52 150.928 77.5249C148.153 77.5381 145.531 77.5367 143.06 77.521C143.048 77.521 143.036 77.5257 143.028 77.5342C143.019 77.5427 143.014 77.5542 143.014 77.5662C142.955 83.4221 142.995 89.2712 142.987 95.012Z" fill="#233746"/>
<path d="M177.875 76.0883C179.094 76.0883 179.839 76.0915 180.11 76.0981C180.117 76.0984 180.124 76.1006 180.13 76.1045C180.136 76.1083 180.141 76.1137 180.144 76.12C180.147 76.1264 180.148 76.1334 180.148 76.1405C180.147 76.1475 180.145 76.1543 180.141 76.1601C179.701 76.7691 179.397 77.4417 179.229 78.1779C179.153 78.5109 179.114 79.0157 179.113 79.6923C179.11 80.7707 179.108 85.8884 179.108 95.0455C179.109 104.202 179.11 109.32 179.113 110.399C179.115 111.075 179.154 111.58 179.23 111.913C179.398 112.649 179.702 113.322 180.142 113.931C180.146 113.937 180.148 113.943 180.149 113.95C180.149 113.957 180.148 113.965 180.145 113.971C180.142 113.977 180.137 113.983 180.131 113.986C180.125 113.99 180.118 113.993 180.111 113.993C179.84 113.999 179.095 114.003 177.876 114.003C176.657 114.003 175.912 113.999 175.642 113.993C175.635 113.993 175.628 113.991 175.621 113.987C175.615 113.983 175.611 113.978 175.607 113.971C175.604 113.965 175.603 113.958 175.603 113.951C175.604 113.944 175.606 113.937 175.61 113.931C176.05 113.322 176.354 112.649 176.522 111.913C176.598 111.58 176.637 111.075 176.639 110.399C176.641 109.32 176.643 104.202 176.643 95.0455C176.643 85.8884 176.641 80.7707 176.638 79.6923C176.636 79.0157 176.597 78.5109 176.521 78.1779C176.353 77.4417 176.049 76.7691 175.609 76.1601C175.605 76.1542 175.603 76.1474 175.602 76.1402C175.602 76.1331 175.603 76.126 175.606 76.1196C175.61 76.1133 175.614 76.1079 175.621 76.1041C175.627 76.1003 175.634 76.0982 175.641 76.0981C175.911 76.0915 176.656 76.0883 177.875 76.0883Z" fill="#233746"/>
<path d="M139.719 124.935C139.72 125.885 139.961 126.785 140.443 127.635C141.8 130.032 145.151 130.559 147.032 128.436C147.041 128.426 147.053 128.417 147.066 128.412C147.079 128.406 147.093 128.403 147.108 128.403C147.122 128.404 147.136 128.407 147.149 128.413C147.162 128.419 147.173 128.428 147.182 128.438L147.753 129.108C147.773 129.132 147.783 129.161 147.783 129.192C147.783 129.223 147.771 129.252 147.751 129.275C147.072 130.035 146.256 130.523 145.301 130.74C142.028 131.486 139.127 129.293 138.709 126.008C138.669 125.689 138.648 125.332 138.648 124.936C138.647 124.54 138.667 124.182 138.707 123.863C139.119 120.577 142.016 118.38 145.291 119.119C146.246 119.334 147.063 119.821 147.743 120.579C147.763 120.602 147.775 120.632 147.775 120.662C147.775 120.693 147.765 120.723 147.745 120.747L147.176 121.417C147.167 121.428 147.156 121.437 147.143 121.443C147.13 121.449 147.116 121.452 147.102 121.453C147.088 121.453 147.073 121.45 147.06 121.445C147.047 121.439 147.036 121.431 147.026 121.42C145.141 119.3 141.792 119.833 140.438 122.232C139.958 123.084 139.718 123.985 139.719 124.935Z" fill="black"/>
<path d="M169.666 127.629C169.671 127.636 169.678 127.641 169.687 127.644C169.695 127.647 169.703 127.648 169.712 127.647C169.72 127.646 169.728 127.642 169.735 127.637C169.742 127.632 169.748 127.625 169.751 127.617C170.062 126.918 170.273 126.209 170.384 125.492C170.385 125.485 170.387 125.479 170.391 125.473C170.395 125.467 170.401 125.462 170.407 125.459C170.413 125.455 170.42 125.453 170.427 125.452C170.434 125.452 170.441 125.452 170.448 125.455L171.218 125.735C171.233 125.741 171.246 125.752 171.254 125.766C171.263 125.78 171.266 125.797 171.263 125.813C171.115 126.712 170.828 127.575 170.404 128.402C170.396 128.419 170.392 128.438 170.394 128.457C170.397 128.476 170.405 128.494 170.417 128.508L171.8 130.132C171.812 130.146 171.819 130.165 171.82 130.184C171.821 130.203 171.815 130.222 171.804 130.237L171.264 130.961C171.258 130.968 171.251 130.974 171.243 130.978C171.235 130.983 171.226 130.985 171.217 130.985C171.208 130.985 171.198 130.984 171.19 130.98C171.182 130.976 171.174 130.971 171.168 130.964L169.827 129.39C169.822 129.384 169.816 129.38 169.809 129.377C169.802 129.373 169.795 129.372 169.787 129.371C169.78 129.371 169.772 129.373 169.765 129.376C169.758 129.379 169.752 129.384 169.746 129.389C168.606 130.653 167.151 131.119 165.383 130.786C162.888 130.315 162.095 127.559 163.714 125.706C164.196 125.154 164.762 124.689 165.413 124.311C165.421 124.306 165.428 124.3 165.433 124.292C165.439 124.284 165.443 124.275 165.444 124.266C165.446 124.257 165.445 124.247 165.443 124.238C165.44 124.229 165.436 124.22 165.429 124.213C164.873 123.554 164.342 122.81 164.227 122.027C163.966 120.267 164.971 119.021 166.757 118.973C167.949 118.939 168.937 119.568 169.152 120.79C169.452 122.491 168.283 123.558 166.979 124.38C166.972 124.384 166.967 124.39 166.962 124.396C166.958 124.403 166.955 124.411 166.954 124.418C166.953 124.426 166.953 124.434 166.955 124.442C166.957 124.45 166.961 124.457 166.966 124.463L169.666 127.629ZM166.385 123.667C167.335 123.112 168.531 122.198 168.23 120.92C168.011 119.989 166.994 119.712 166.193 119.99C165.41 120.263 165.102 121.002 165.213 121.797C165.307 122.469 165.815 123.119 166.289 123.651C166.301 123.665 166.317 123.674 166.335 123.676C166.352 123.679 166.37 123.676 166.385 123.667ZM169.117 128.547L166.12 125.03C166.109 125.018 166.095 125.01 166.08 125.007C166.064 125.004 166.048 125.007 166.034 125.014C165.03 125.583 163.906 126.544 163.938 127.812C163.971 129.16 165.049 129.816 166.307 129.875C167.411 129.927 168.347 129.512 169.117 128.631C169.127 128.619 169.133 128.604 169.133 128.589C169.133 128.573 169.127 128.558 169.117 128.547Z" fill="black"/>
<path d="M193.017 118.993C196.382 118.993 198.425 121.733 198.425 124.936C198.426 128.138 196.385 130.88 193.02 130.88C189.654 130.881 187.611 128.14 187.61 124.938C187.61 121.736 189.652 118.994 193.017 118.993ZM188.678 124.937C188.678 125.063 188.695 125.282 188.73 125.593C188.992 127.945 190.563 129.633 192.985 129.776C192.995 129.776 193.006 129.777 193.018 129.777C193.03 129.777 193.041 129.776 193.05 129.776C195.473 129.633 197.044 127.945 197.305 125.593C197.34 125.282 197.357 125.063 197.357 124.937C197.357 124.81 197.34 124.591 197.305 124.281C197.043 121.929 195.472 120.24 193.05 120.098C193.041 120.098 193.03 120.098 193.018 120.098C193.005 120.098 192.994 120.098 192.985 120.098C190.563 120.24 188.992 121.929 188.73 124.281C188.695 124.592 188.678 124.811 188.678 124.937Z" fill="black"/>
<path d="M121.455 130.757H120.547C120.526 130.757 120.506 130.749 120.491 130.734C120.476 130.719 120.467 130.699 120.467 130.677V119.192C120.467 119.181 120.469 119.171 120.473 119.161C120.477 119.152 120.483 119.143 120.491 119.136C120.498 119.128 120.507 119.122 120.516 119.118C120.526 119.114 120.536 119.112 120.547 119.112H127.428C127.439 119.112 127.449 119.114 127.459 119.118C127.469 119.122 127.477 119.128 127.485 119.136C127.492 119.143 127.498 119.152 127.502 119.161C127.506 119.171 127.508 119.181 127.508 119.192V120.098C127.508 120.109 127.506 120.119 127.502 120.129C127.498 120.139 127.492 120.147 127.485 120.155C127.477 120.162 127.469 120.168 127.459 120.172C127.449 120.176 127.439 120.178 127.428 120.178H121.617C121.596 120.178 121.575 120.187 121.561 120.201C121.546 120.216 121.537 120.237 121.537 120.258V124.619C121.537 124.64 121.546 124.66 121.561 124.675C121.575 124.69 121.596 124.699 121.617 124.699H126.778C126.8 124.699 126.82 124.707 126.835 124.722C126.85 124.737 126.858 124.757 126.858 124.778V125.69C126.858 125.711 126.85 125.731 126.835 125.746C126.82 125.761 126.8 125.77 126.778 125.77H121.614C121.593 125.77 121.572 125.778 121.558 125.793C121.543 125.808 121.534 125.828 121.534 125.849V130.677C121.534 130.688 121.532 130.698 121.528 130.708C121.524 130.718 121.518 130.726 121.511 130.734C121.503 130.741 121.495 130.747 121.485 130.751C121.475 130.755 121.465 130.757 121.455 130.757Z" fill="black"/>
<path d="M132.826 119.112C132.999 119.112 133.167 119.117 133.333 119.127C133.349 119.128 133.365 119.133 133.379 119.143C133.393 119.153 133.403 119.166 133.409 119.182L138.055 130.72C138.057 130.724 138.057 130.729 138.057 130.734C138.056 130.739 138.055 130.744 138.052 130.748C138.049 130.752 138.046 130.756 138.041 130.758C138.037 130.761 138.032 130.762 138.027 130.762H136.965C136.946 130.762 136.928 130.756 136.912 130.746C136.896 130.735 136.884 130.72 136.877 130.702L135.688 127.749C135.679 127.727 135.664 127.709 135.645 127.695C135.626 127.682 135.604 127.675 135.581 127.674C135.451 127.672 134.533 127.67 132.824 127.67C131.116 127.67 130.197 127.671 130.069 127.673C130.045 127.674 130.023 127.681 130.004 127.694C129.984 127.707 129.969 127.726 129.961 127.748L128.771 130.7C128.764 130.718 128.751 130.733 128.736 130.744C128.72 130.754 128.701 130.76 128.682 130.76H127.62C127.615 130.76 127.61 130.759 127.606 130.756C127.602 130.754 127.598 130.75 127.595 130.746C127.593 130.742 127.591 130.737 127.59 130.732C127.59 130.727 127.591 130.722 127.593 130.718L132.243 119.182C132.249 119.166 132.26 119.153 132.273 119.143C132.286 119.134 132.302 119.128 132.319 119.127C132.485 119.117 132.654 119.112 132.826 119.112ZM130.398 126.607C130.396 126.613 130.395 126.619 130.396 126.626C130.397 126.632 130.399 126.638 130.402 126.643C130.406 126.648 130.41 126.652 130.416 126.655C130.421 126.658 130.427 126.659 130.434 126.659H135.201C135.207 126.659 135.213 126.658 135.219 126.655C135.224 126.652 135.229 126.648 135.232 126.643C135.236 126.638 135.238 126.632 135.239 126.626C135.239 126.619 135.239 126.613 135.236 126.607L132.853 120.534C132.85 120.527 132.845 120.521 132.839 120.517C132.832 120.513 132.825 120.511 132.817 120.511C132.81 120.511 132.802 120.513 132.796 120.517C132.79 120.521 132.785 120.527 132.782 120.534L130.398 126.607Z" fill="black"/>
<path d="M151.246 125.458V129.617C151.246 129.637 151.254 129.657 151.269 129.671C151.283 129.685 151.302 129.693 151.322 129.693H157.346C157.366 129.693 157.386 129.701 157.4 129.715C157.414 129.73 157.422 129.749 157.422 129.769V130.685C157.422 130.705 157.414 130.725 157.4 130.739C157.386 130.753 157.366 130.761 157.346 130.761H150.25C150.23 130.761 150.211 130.753 150.197 130.739C150.183 130.725 150.175 130.705 150.175 130.685V119.188C150.175 119.168 150.183 119.149 150.197 119.134C150.211 119.12 150.23 119.112 150.25 119.112H157.143C157.163 119.112 157.182 119.12 157.196 119.134C157.21 119.149 157.218 119.168 157.218 119.188V120.101C157.218 120.122 157.21 120.141 157.196 120.155C157.182 120.169 157.163 120.177 157.143 120.177H151.322C151.302 120.177 151.283 120.185 151.269 120.199C151.254 120.214 151.246 120.233 151.246 120.253V124.268C151.246 124.288 151.254 124.307 151.269 124.321C151.283 124.336 151.302 124.344 151.322 124.344H156.489C156.509 124.344 156.528 124.352 156.542 124.366C156.556 124.38 156.564 124.399 156.564 124.419V125.306C156.564 125.326 156.556 125.346 156.542 125.36C156.528 125.374 156.509 125.382 156.489 125.382H151.322C151.302 125.382 151.283 125.39 151.269 125.404C151.254 125.418 151.246 125.438 151.246 125.458Z" fill="black"/>
<path d="M184.11 124.724C184.106 124.727 184.103 124.731 184.102 124.735C184.1 124.74 184.099 124.745 184.1 124.749C184.101 124.754 184.103 124.758 184.106 124.762C184.109 124.765 184.114 124.768 184.118 124.769C184.767 124.944 185.271 125.309 185.63 125.864C186.21 126.763 186.219 128.326 185.707 129.255C185.09 130.376 183.738 130.739 182.485 130.756C181.808 130.765 180.166 130.766 177.557 130.759C177.544 130.759 177.531 130.754 177.522 130.745C177.512 130.735 177.507 130.723 177.507 130.71V119.236C177.507 119.204 177.52 119.173 177.543 119.15C177.566 119.127 177.597 119.114 177.629 119.114C177.838 119.112 179.474 119.113 182.536 119.117C182.777 119.117 183.122 119.184 183.569 119.319C184.456 119.585 185.059 120.1 185.376 120.863C185.667 121.563 185.678 122.603 185.412 123.28C185.13 123.997 184.712 124.312 184.11 124.724ZM178.58 120.231L178.572 124.247C178.572 124.258 178.574 124.268 178.578 124.278C178.582 124.287 178.588 124.296 178.595 124.304C178.603 124.311 178.612 124.317 178.621 124.321C178.631 124.325 178.641 124.327 178.652 124.327L182.286 124.333C182.578 124.333 182.867 124.282 183.137 124.183C183.407 124.083 183.653 123.937 183.86 123.752C184.066 123.567 184.231 123.348 184.343 123.106C184.455 122.864 184.513 122.605 184.514 122.343V122.155C184.514 121.626 184.281 121.119 183.865 120.744C183.449 120.37 182.884 120.159 182.294 120.157L178.66 120.152C178.638 120.152 178.618 120.16 178.603 120.175C178.588 120.19 178.58 120.21 178.58 120.231ZM178.584 125.411L178.568 129.653C178.568 129.667 178.574 129.68 178.584 129.69C178.594 129.7 178.607 129.706 178.621 129.706L182.756 129.72C183.345 129.722 183.911 129.509 184.329 129.129C184.747 128.748 184.983 128.231 184.985 127.691L184.986 127.416C184.987 126.876 184.755 126.357 184.34 125.974C183.925 125.591 183.361 125.374 182.772 125.372L178.637 125.357C178.623 125.357 178.609 125.363 178.599 125.373C178.589 125.383 178.584 125.397 178.584 125.411Z" fill="black"/>
<path d="M200.932 119.236C200.932 119.196 200.948 119.157 200.977 119.129C201.005 119.101 201.044 119.085 201.084 119.085L205.196 119.092C205.917 119.093 206.631 119.236 207.296 119.513C207.962 119.79 208.566 120.195 209.075 120.706C209.584 121.216 209.987 121.822 210.262 122.489C210.536 123.155 210.677 123.87 210.676 124.59L210.674 125.306C210.671 126.762 210.091 128.157 209.06 129.185C208.029 130.212 206.632 130.788 205.177 130.786L201.064 130.779C201.044 130.779 201.024 130.775 201.006 130.767C200.987 130.759 200.97 130.748 200.956 130.734C200.942 130.719 200.931 130.703 200.923 130.684C200.916 130.665 200.912 130.645 200.912 130.625L200.932 119.236ZM201.98 120.318L201.996 129.561C201.996 129.601 202.012 129.639 202.04 129.666C202.068 129.694 202.106 129.71 202.145 129.71L205.063 129.705C205.659 129.704 206.249 129.586 206.799 129.357C207.349 129.128 207.849 128.792 208.269 128.37C208.69 127.948 209.024 127.448 209.251 126.897C209.478 126.346 209.594 125.756 209.593 125.16V124.692C209.592 124.096 209.474 123.506 209.245 122.956C209.016 122.406 208.68 121.906 208.258 121.486C207.836 121.065 207.335 120.732 206.784 120.505C206.233 120.278 205.643 120.161 205.047 120.162L202.129 120.167C202.11 120.167 202.09 120.171 202.072 120.179C202.054 120.186 202.037 120.197 202.023 120.211C202.009 120.225 201.998 120.242 201.991 120.26C201.984 120.279 201.98 120.298 201.98 120.318Z" fill="black"/>
<path d="M215.602 125.556C215.621 125.556 215.633 125.551 215.64 125.539C217.172 122.708 218.317 120.589 219.075 119.182C219.085 119.164 219.1 119.148 219.118 119.137C219.136 119.127 219.157 119.121 219.178 119.121H220.232C220.237 119.121 220.242 119.122 220.246 119.125C220.251 119.128 220.254 119.131 220.257 119.136C220.259 119.14 220.261 119.145 220.261 119.15C220.261 119.155 220.26 119.16 220.258 119.164L216.153 126.739C216.137 126.769 216.128 126.803 216.128 126.837V130.666C216.128 130.69 216.119 130.713 216.102 130.73C216.086 130.747 216.063 130.757 216.039 130.758C215.975 130.761 215.826 130.762 215.592 130.761C215.36 130.761 215.211 130.76 215.146 130.757C215.122 130.756 215.099 130.746 215.083 130.728C215.066 130.711 215.057 130.688 215.058 130.664L215.071 126.835C215.071 126.801 215.063 126.767 215.047 126.737L210.97 119.148C210.967 119.143 210.966 119.138 210.966 119.133C210.966 119.128 210.968 119.123 210.97 119.119C210.973 119.114 210.977 119.111 210.981 119.108C210.985 119.106 210.99 119.104 210.995 119.104L212.049 119.108C212.071 119.108 212.091 119.114 212.11 119.125C212.128 119.135 212.143 119.151 212.153 119.169C212.905 120.579 214.042 122.703 215.565 125.539C215.571 125.551 215.583 125.556 215.602 125.556Z" fill="black"/>
</g>
<defs>
<linearGradient id="paint0_linear_7043_6026" x1="232.692" y1="20.8343" x2="232.692" y2="130.972" gradientUnits="userSpaceOnUse">
<stop stop-color="#DDC9A8"/>
<stop offset="0.192308" stop-color="#837556"/>
<stop offset="0.399038" stop-color="#CFBB97"/>
<stop offset="0.596154" stop-color="#837556"/>
<stop offset="0.783654" stop-color="#E3CEB8"/>
<stop offset="0.980769" stop-color="#E3CEB8"/>
</linearGradient>
<linearGradient id="paint1_linear_7043_6026" x1="56.5364" y1="1" x2="56.5364" y2="96.2783" gradientUnits="userSpaceOnUse">
<stop stop-color="#E3CDB7"/>
<stop offset="0.192308" stop-color="#978767"/>
<stop offset="0.311411" stop-color="#E3CDB7"/>
<stop offset="0.456604" stop-color="#978767"/>
<stop offset="0.600962" stop-color="#E3CDB7"/>
<stop offset="0.716346" stop-color="#978767"/>
<stop offset="1" stop-color="#837455"/>
</linearGradient>
<linearGradient id="paint2_linear_7043_6026" x1="107.579" y1="33.1558" x2="107.579" y2="39.3018" gradientUnits="userSpaceOnUse">
<stop stop-color="#E3CDB7"/>
<stop offset="0.669896" stop-color="#978767"/>
<stop offset="1" stop-color="#837455"/>
</linearGradient>
<linearGradient id="paint3_linear_7043_6026" x1="139.186" y1="38.4769" x2="139.186" y2="64.8563" gradientUnits="userSpaceOnUse">
<stop stop-color="#E3CDB7"/>
<stop offset="0.195771" stop-color="#978767"/>
<stop offset="0.456604" stop-color="#978767"/>
<stop offset="0.552971" stop-color="#E3CDB7"/>
<stop offset="1" stop-color="#837455"/>
</linearGradient>
<linearGradient id="paint4_linear_7043_6026" x1="171.263" y1="68.6728" x2="184.468" y2="68.6728" gradientUnits="userSpaceOnUse">
<stop stop-color="#BAA584"/>
<stop offset="0.293269" stop-color="#857657"/>
<stop offset="0.557692" stop-color="#D9C4A2"/>
<stop offset="0.75" stop-color="#76694F"/>
<stop offset="1" stop-color="#E1CCB4"/>
</linearGradient>
<clipPath id="clip0_7043_6026">
<rect width="233.941" height="130" fill="white" transform="translate(0 1)"/>
</clipPath>
</defs>
</svg>
