<svg xmlns="http://www.w3.org/2000/svg" viewBox="0 0 100 100" preserveAspectRatio="none">
  <g fill="none" stroke="#4a5e78" stroke-width="0.35" stroke-linecap="round" stroke-linejoin="round" opacity="0.92">
        <path d="M 48.4375 30.35190615835777 L 48.438 30.352 L 48.49933333333333 30.383666666666667 L 48.62233333333334 30.447333333333333 L 48.806999999999995 30.542666666666666 L 48.99166666666667 30.638333333333335 L 49.17633333333333 30.733666666666668 L 49.361 30.829333333333334 L 49.54566666666667 30.924666666666667 L 49.730333333333334 31.020333333333337 L 49.915 31.115666666666666 L 50.346000000000004 31.338666666666665 L 50.5615 31.45"/>
    <path d="M 60.547 30.2055 L 60.547 30.44966666666667 L 60.35166666666667 31.329333333333334 L 59.798 32.649 L 59.309666666666665 33.96866666666667 L 59.11433333333334 34.555 L 59.57033333333334 34.70166666666666 L 60.189 34.11533333333333 L 61.068000000000005 33.724333333333334 L 61.588666666666676 33.089 L 61.81633333333334 32.79566666666667 L 61.36066666666667 32.307 L 61.10033333333334 31.378333333333334 L 60.84 30.9385"/>
    <path d="M 65.088 32.991 L 64.35566666666666 34.11533333333333 L 63.21633333333333 35.875 L 63.184 36.266 L 63.63966666666666 35.63033333333333 L 64.12766666666666 35.092666666666666 L 64.90866666666666 34.213 L 65.85266666666666 33.431000000000004 L 66.73166666666667 32.258 L 67.02466666666668 31.769333333333332 L 66.99199999999999 31.5985"/>
    <path d="M 92.2855 45.161500000000004 L 92.41566666666667 46.57866666666666 L 92.64333333333333 48.53366666666667 L 92.871 49.315666666666665 L 93.00099999999999 49.071333333333335 L 93.26166666666666 48.827 L 93.61966666666666 48.48466666666667 L 93.815 48.09366666666667 L 93.61966666666666 47.947 L 93.229 48.04466666666667 L 92.83833333333332 46.823 L 92.6265 46.041"/>
    <path d="M 64.0625 28.445999999999998 L 63.63933333333333 29.276666666666667 L 62.76066666666666 30.254 L 62.435 31.133666666666667 L 62.272333333333336 31.622666666666664 L 62.467666666666666 32.258 L 62.82566666666667 32.111333333333334 L 63.21633333333333 31.524666666666665 L 63.672 30.791666666666668 L 63.965 30.156333333333333 L 64.42066666666666 29.325333333333333 L 64.681 28.494333333333334 L 64.79499999999999 28.0055"/>
    <path d="M 48.4375 30.35190615835777 L 55.224500000000006 31.1585 L 54.915333333333336 31.622666666666664 L 54.42733333333333 32.404666666666664 L 54.394666666666666 32.84466666666666 L 54.589999999999996 32.94266666666667 L 54.785333333333334 32.796 L 54.948 32.55166666666667 L 55.338666666666676 32.20933333333333 L 55.696666666666665 31.81833333333333 L 55.92466666666667 31.329333333333334 L 56.05466666666666 31.182666666666666 L 56.184666666666665 30.938333333333333 L 56.086999999999996 30.792 L 55.908 30.499"/>
    <path d="M 39.834 41.173 L 40.215 41.14366666666667 L 40.97666666666667 41.085 L 41.73833333333334 41.02633333333333 L 42.5 40.967666666666666 L 43.26166666666666 40.909 L 44.02333333333333 40.85033333333333 L 44.785 40.791666666666664 L 45.547 40.733 L 46.30866666666666 40.67433333333333 L 47.07033333333334 40.61566666666667 L 47.832 40.55733333333333 L 48.59366666666667 40.49866666666667 L 49.355333333333334 40.44 L 50.117 40.38133333333334 L 50.498 40.352000000000004"/>
  </g>
</svg>
